[b]http://www.imdb.com/title/tt1024648/

A dramatization of the 1980 joint CIA-Canadian secret operation to extract six fugitive American diplomatic personnel out of revolutionary Iran.
 


Director: 
Ben Affleck

 Writers: 
Chris Terrio (screenplay), Joshuah Bearman (article)
 
Stars:
 Ben Affleck, Bryan Cranston and John Goodman

Genres:
 Biography | Drama | Thriller

Thanks : UNiQUE[/b]



Format                                   : AVI
Format/Info                              : Audio Video Interleave
File size                                : 705 MiB
Duration                                 : 1h 59mn
Overall bit rate                         : 823 Kbps
Writing application                      : Lavf54.32.100

Video
ID                                       : 0
Format                                   : MPEG-4 Visual
Format profile                           : Simple@L3
Format settings, BVOP                    : No
Format settings, QPel                    : No
Format settings, GMC                     : No warppoints
Format settings, Matrix                  : Default (H.263)
Codec ID                                 : XVID
Codec ID/Hint                            : XviD
Duration                                 : 1h 59mn
Bit rate                                 : 748 Kbps
Width                                    : 680 pixels
Height                                   : 240 pixels
Display aspect ratio                     : 2.40:1
Frame rate                               : 23.976 fps
Color space                              : YUV
Chroma subsampling                       : 4:2:0
Bit depth                                : 8 bits
Scan type                                : Progressive
Compression mode                         : Lossy
Bits/(Pixel*Frame)                       : 0.191
Stream size                              : 641 MiB (91%)
Writing library                          : XviD 64

Audio
ID                                       : 1
Format                                   : AC-3
Format/Info                              : Audio Coding 3
Mode extension                           : CM (complete main)
Format settings, Endianness              : Big
Codec ID                                 : 2000
Duration                                 : 1h 59mn
Bit rate mode                            : Constant
Bit rate                                 : 64.0 Kbps
Channel(s)                               : 2 channels
Channel positions                        : Front: L R
Sampling rate                            : 48.0 KHz
Bit depth                                : 16 bits
Compression mode                         : Lossy
Stream size                              : 54.8 MiB (8%)
Alignment                                : Aligned on interleaves
Interleave, duration                     : 32 ms (0.77 video frame)


 
http://bayimg.com/BAgoEAAEf
 
http://bayimg.com/baGOGaAef
 
http://bayimg.com/BAGOiAAEf